<svg width="31" height="31" viewBox="0 0 31 31" fill="none" xmlns="http://www.w3.org/2000/svg">
<path fill-rule="evenodd" clip-rule="evenodd" d="M11.0355 4.75976C11.3792 4.03552 12.1206 3.53223 12.9775 3.53223H17.8876C18.7444 3.53223 19.4846 4.03552 19.8295 4.75976C20.6679 4.76712 21.3222 4.80518 21.9065 5.0335C22.604 5.30635 23.2107 5.77003 23.657 6.37151C24.1075 6.97791 24.3199 7.75494 24.6096 8.82412L25.5204 12.1655L25.8641 13.1978L25.8936 13.2346C26.9996 14.6512 26.4729 16.7577 25.4197 20.9693C24.7495 23.649 24.4156 24.9883 23.4164 25.769C22.4172 26.5485 21.0362 26.5485 18.2743 26.5485H12.5908C9.82883 26.5485 8.44786 26.5485 7.44864 25.769C6.44943 24.9883 6.11432 23.649 5.44531 20.9693C4.39209 16.7577 3.86548 14.6512 4.97148 13.2346L5.00094 13.1978L5.34465 12.1655L6.25548 8.82412C6.54641 7.75494 6.75877 6.97668 7.20805 6.37028C7.65454 5.76926 8.26114 5.30601 8.95851 5.0335C9.54282 4.80518 10.1959 4.7659 11.0355 4.75976ZM11.038 6.60474C10.2253 6.61333 9.8988 6.64402 9.62874 6.74959C9.25308 6.8965 8.92636 7.14622 8.686 7.47015C8.46995 7.76108 8.34229 8.16739 7.9863 9.47717L7.28661 12.0415C8.53869 11.8181 10.2499 11.8181 12.5896 11.8181H18.2743C20.6152 11.8181 22.3251 11.8181 23.5772 12.039L22.8787 9.47471C22.5227 8.16494 22.3951 7.75862 22.179 7.4677C21.9387 7.14376 21.612 6.89405 21.2363 6.74714C20.9662 6.64157 20.6397 6.61088 19.8271 6.60229C19.6528 6.96913 19.3781 7.27905 19.0348 7.4961C18.6915 7.71315 18.2937 7.82844 17.8876 7.82859H12.9775C12.5714 7.82855 12.1738 7.71344 11.8305 7.49662C11.4872 7.27979 11.2124 6.97136 11.038 6.60474Z" fill="#9C5E29"/>
</svg>
